<svg version="1.1" id="Layer_1" xmlns="http://www.w3.org/2000/svg" xmlns:xlink="http://www.w3.org/1999/xlink" x="0px" y="0px" width="100%" viewBox="0 0 323 143" xml:space="preserve">
    <path fill="#646464" opacity="1.000000" stroke="none" d="
M103.948860,77.239861 
	C105.139633,100.903862 88.720718,119.542557 65.838081,120.980011 
	C43.684498,122.371666 24.776432,105.395340 23.138403,82.642723 
	C21.591194,61.151596 38.209637,42.346302 60.702579,40.135399 
	C82.073875,38.034748 101.506004,54.503090 103.948860,77.239861 
M41.325130,76.850464 
	C39.365894,76.850464 37.406658,76.850464 35.349403,76.850464 
	C35.349403,85.651970 35.349403,94.318130 35.349403,102.827713 
	C37.637875,102.827713 39.575287,102.827713 41.958763,102.827713 
	C41.958763,94.346054 41.958763,86.100151 42.668144,78.208710 
	C44.555618,86.392334 46.443096,94.575958 48.340927,102.804497 
	C50.371609,102.804497 52.127087,102.804497 53.985104,102.804497 
	C54.801075,98.734993 55.570393,94.898170 56.374580,90.887444 
	C54.283054,90.581688 52.720242,90.353233 51.148365,90.123444 
	C48.970821,79.208954 46.855114,68.604408 44.786354,58.235165 
	C41.201084,58.235165 38.268967,58.235165 35.271812,58.235165 
	C35.271812,63.861858 35.271812,69.252708 35.271812,74.359428 
	C37.472691,76.158997 41.585655,72.640503 41.325130,76.850464 
M59.913227,80.544708 
	C59.913227,87.985054 59.913227,95.425392 59.913227,102.848923 
	C62.394512,102.848923 64.322578,102.848923 66.482681,102.848923 
	C66.482681,87.881462 66.482681,73.151260 66.482681,58.204021 
	C63.319069,58.204021 60.388992,58.204021 57.182453,58.204021 
	C55.318653,68.277885 53.470234,78.268608 51.572105,88.528000 
	C53.734470,88.528000 55.176395,88.528000 56.887634,88.528000 
	C57.334953,86.307579 57.641781,84.179321 58.233467,82.133438 
	C58.484253,81.266296 59.333126,80.572128 59.913227,80.544708 
M89.197037,80.594048 
	C92.034973,76.326599 93.261864,71.700432 92.541512,66.320969 
	C90.263336,66.320969 88.210869,66.320969 86.050552,66.320969 
	C87.099358,78.315643 76.883362,84.848328 72.766212,94.279945 
	C77.717873,95.744659 80.892204,94.357979 83.107689,89.925209 
	C84.646812,86.845726 86.950760,84.148483 89.197037,80.594048 
M92.064774,102.472771 
	C92.064774,100.544106 92.064774,98.615440 92.064774,96.570107 
	C84.779312,96.570107 77.912666,96.570107 70.863869,96.570107 
	C70.863869,98.789597 70.863869,100.715408 70.863869,103.025803 
	C77.776115,103.025803 84.526344,103.025803 92.064774,102.472771 
M71.700294,71.885300 
	C73.485023,71.885300 75.269753,71.885300 77.367714,71.885300 
	C77.244125,61.267731 85.514557,65.329231 91.141830,63.935230 
	C90.426750,62.800346 90.014290,61.703136 89.243271,60.997940 
	C85.714806,57.770672 81.589424,57.116753 77.295296,59.071358 
	C72.059525,61.454578 70.615181,66.002968 71.700294,71.885300 
z"></path>
    <path fill="#fa6b09" opacity="1.000000" stroke="none" d="
M187.727112,93.017151 
	C188.552872,91.604149 189.298676,89.970917 190.212128,89.871025 
	C193.290375,89.534401 196.428223,89.742905 200.266022,89.742905 
	C200.004517,95.649895 200.383026,101.182892 199.388336,106.456917 
	C197.646988,115.689804 189.584213,121.405823 180.116867,121.039833 
	C171.109711,120.691635 162.889099,113.942490 162.486343,104.536499 
	C161.804443,88.611343 162.361282,72.632935 162.427048,56.677032 
	C162.428925,56.221149 162.766541,55.766647 163.005585,55.165775 
	C166.790085,55.165775 170.575714,55.165775 174.082535,55.165775 
	C174.082535,71.047050 174.009308,86.758942 174.134079,102.469261 
	C174.165253,106.392769 176.809891,108.663948 180.533722,108.785309 
	C184.229218,108.905731 186.958420,106.915009 187.375427,102.954887 
	C187.704926,99.825562 187.623108,96.652931 187.727112,93.017151 
z"></path>
    <path fill="#fa6b09" opacity="1.000000" stroke="none" d="
M252.247604,94.959290 
	C252.247711,76.865608 252.247711,59.264439 252.247711,41.291115 
	C256.339020,41.291115 260.066986,41.291115 264.116821,41.291115 
	C264.116821,62.283077 264.116821,83.324310 264.116821,104.725189 
	C260.370331,104.725189 256.647980,104.725189 252.247498,104.725189 
	C252.247498,101.658775 252.247498,98.555290 252.247604,94.959290 
z"></path>
    <path fill="#fa6b09" opacity="1.000000" stroke="none" d="
M156.149902,101.048820 
	C156.559387,105.703011 155.000702,107.691200 150.483231,107.005592 
	C148.220383,106.662170 145.862381,106.945740 143.018311,106.945740 
	C145.960266,98.613907 141.864868,93.196106 136.463852,87.976952 
	C131.233261,82.922485 126.074043,77.687775 121.638847,71.948494 
	C117.728973,66.889015 117.166367,60.684315 118.791054,54.178841 
	C122.817642,54.178841 126.712715,54.178841 131.040771,54.178841 
	C128.309906,65.025856 134.989609,71.039642 141.962158,77.003967 
	C149.286484,83.269234 155.591949,90.226677 156.149902,101.048820 
z"></path>
    <path fill="#fa6b09" opacity="1.000000" stroke="none" d="
M235.876221,81.120331 
	C242.465591,88.554298 247.509705,96.161041 244.777161,106.706268 
	C240.811462,106.706268 236.877594,106.706268 232.436569,106.706268 
	C235.325150,98.330292 231.149353,92.842522 225.392502,87.664116 
	C220.714569,83.456238 216.268478,78.893211 212.308456,74.010124 
	C207.692474,68.318184 206.326279,61.585415 208.255341,54.138466 
	C212.216934,54.138466 216.151642,54.138466 220.586670,54.138466 
	C217.889755,63.166687 222.430374,69.192574 228.596359,74.548973 
	C230.976807,76.616882 233.313766,78.734879 235.876221,81.120331 
z"></path>
    <path fill="#fa6b09" opacity="1.000000" stroke="none" d="
M195.895142,68.008270 
	C193.108047,68.008438 190.796158,68.008438 187.713440,68.008438 
	C187.713440,65.169388 187.824707,62.582691 187.690842,60.008743 
	C187.389755,54.219585 185.058960,52.015778 179.232910,51.952480 
	C174.293961,51.898823 169.353973,51.941418 164.282364,51.941418 
	C167.022461,43.751274 174.845718,39.108810 183.599091,40.135220 
	C192.142181,41.136971 199.125122,48.297638 199.945862,57.057907 
	C200.178055,59.536419 199.869461,62.066990 200.121201,64.541916 
	C200.428879,67.566864 199.036087,68.385597 195.895142,68.008270 
z"></path>
    <path fill="#fa6b09" opacity="1.000000" stroke="none" d="
M220.267822,106.613800 
	C222.996246,107.975250 225.435928,109.662155 228.014404,109.911034 
	C232.961472,110.388527 237.987335,110.049973 243.014999,110.049973 
	C241.007401,117.959312 233.310806,122.195526 223.420471,120.953865 
	C213.271713,119.679771 206.696564,111.154137 206.604187,98.556320 
	C210.121613,98.335320 213.673706,98.112144 217.020706,97.901855 
	C218.151749,101.042137 219.096741,103.665916 220.267822,106.613800 
z"></path>
    <path fill="#fa6b09" opacity="1.000000" stroke="none" d="
M131.110504,106.807449 
	C133.668030,108.105247 135.944260,109.690674 138.350616,109.921837 
	C143.290604,110.396416 148.300308,110.143707 153.281143,110.204269 
	C153.401306,110.205734 153.519470,110.370575 153.638565,110.459213 
	C152.112671,118.365898 142.373932,122.645546 132.281296,120.731895 
	C123.308540,119.030579 116.565971,108.984421 117.394089,98.465981 
	C120.765945,98.285980 124.203079,98.102493 127.537987,97.924469 
	C128.735413,100.983162 129.811768,103.732597 131.110504,106.807449 
z"></path>
    <path fill="#fa6b09" opacity="1.000000" stroke="none" d="
M127.321106,42.141994 
	C141.100616,35.997631 153.384659,42.817444 155.542526,58.022427 
	C151.947830,58.722797 148.317093,59.430187 144.756775,60.123859 
	C140.971451,50.866100 140.971451,50.866055 131.281464,50.865646 
	C127.676300,50.865494 124.071129,50.865620 120.465965,50.865620 
	C120.178436,50.442173 119.890900,50.018730 119.603371,49.595284 
	C122.060143,47.163685 124.516922,44.732086 127.321106,42.141994 
z"></path>
    <path fill="#fa6b09" opacity="1.000000" stroke="none" d="
M271.991577,120.088394 
	C265.236359,120.088425 258.979919,120.088425 252.525269,120.088425 
	C252.525269,115.943840 252.525269,112.383415 252.525269,108.532539 
	C263.345612,108.532539 273.882812,108.532539 284.719849,108.532539 
	C284.719849,112.263199 284.719849,115.832954 284.719849,120.088371 
	C280.655060,120.088371 276.572693,120.088371 271.991577,120.088394 
z"></path>
    <path fill="#fa6b09" opacity="1.000000" stroke="none" d="
M223.376984,40.105072 
	C236.692078,39.890224 243.418213,45.495296 244.831192,58.125896 
	C241.234283,58.808510 237.589874,59.500141 234.017593,60.178082 
	C230.915756,51.029613 230.685638,50.871609 221.030258,50.871338 
	C217.263550,50.871235 213.496857,50.871323 209.260483,50.871323 
	C211.863419,44.063953 216.674423,41.166969 223.376984,40.105072 
z"></path>
    <path fill="#fa6b09" opacity="1.000000" stroke="none" d="
M181.139633,75.452629 
	C187.326385,74.707504 193.382904,74.397995 199.783447,74.070908 
	C199.783447,78.523415 199.783447,82.260529 199.783447,86.329803 
	C193.682663,86.329803 187.618881,86.329803 181.009399,86.329803 
	C181.009399,82.762100 181.009399,79.325172 181.139633,75.452629 
z"></path>
    <path fill="#FAFAFA" opacity="1.000000" stroke="none" d="
M59.911697,80.172028 
	C59.333126,80.572128 58.484253,81.266296 58.233467,82.133438 
	C57.641781,84.179321 57.334953,86.307579 56.887634,88.528000 
	C55.176395,88.528000 53.734470,88.528000 51.572105,88.528000 
	C53.470234,78.268608 55.318653,68.277885 57.182453,58.204021 
	C60.388992,58.204021 63.319069,58.204021 66.482681,58.204021 
	C66.482681,73.151260 66.482681,87.881462 66.482681,102.848923 
	C64.322578,102.848923 62.394512,102.848923 59.913227,102.848923 
	C59.913227,95.425392 59.913227,87.985054 59.911697,80.172028 
z"></path>
    <path fill="#FAFAFA" opacity="1.000000" stroke="none" d="
M42.083786,77.472778 
	C41.585655,72.640503 37.472691,76.158997 35.271812,74.359428 
	C35.271812,69.252708 35.271812,63.861858 35.271812,58.235165 
	C38.268967,58.235165 41.201084,58.235165 44.786354,58.235165 
	C46.855114,68.604408 48.970821,79.208954 51.148365,90.123444 
	C52.720242,90.353233 54.283054,90.581688 56.374580,90.887444 
	C55.570393,94.898170 54.801075,98.734993 53.985104,102.804497 
	C52.127087,102.804497 50.371609,102.804497 48.340927,102.804497 
	C46.443096,94.575958 44.555618,86.392334 42.336098,77.933304 
	C42.004051,77.657898 42.083786,77.472778 42.083786,77.472778 
z"></path>
    <path fill="#F1F1F2" opacity="1.000000" stroke="none" d="
M89.055023,80.937256 
	C86.950760,84.148483 84.646812,86.845726 83.107689,89.925209 
	C80.892204,94.357979 77.717873,95.744659 72.766212,94.279945 
	C76.883362,84.848328 87.099358,78.315643 86.050552,66.320969 
	C88.210869,66.320969 90.263336,66.320969 92.541512,66.320969 
	C93.261864,71.700432 92.034973,76.326599 89.055023,80.937256 
z"></path>
    <path fill="#FAFAFA" opacity="1.000000" stroke="none" d="
M41.704460,77.161621 
	C42.083786,77.472778 42.004051,77.657898 41.981407,77.756073 
	C41.958763,86.100151 41.958763,94.346054 41.958763,102.827713 
	C39.575287,102.827713 37.637875,102.827713 35.349403,102.827713 
	C35.349403,94.318130 35.349403,85.651970 35.349403,76.850464 
	C37.406658,76.850464 39.365894,76.850464 41.704460,77.161621 
z"></path>
    <path fill="#F2F3F3" opacity="1.000000" stroke="none" d="
M91.670670,102.749283 
	C84.526344,103.025803 77.776115,103.025803 70.863869,103.025803 
	C70.863869,100.715408 70.863869,98.789597 70.863869,96.570107 
	C77.912666,96.570107 84.779312,96.570107 92.064774,96.570107 
	C92.064774,98.615440 92.064774,100.544106 91.670670,102.749283 
z"></path>
    <path fill="#F1F2F2" opacity="1.000000" stroke="none" d="
M71.343109,71.630371 
	C70.615181,66.002968 72.059525,61.454578 77.295296,59.071358 
	C81.589424,57.116753 85.714806,57.770672 89.243271,60.997940 
	C90.014290,61.703136 90.426750,62.800346 91.141830,63.935230 
	C85.514557,65.329231 77.244125,61.267731 77.367714,71.885300 
	C75.269753,71.885300 73.485023,71.885300 71.343109,71.630371 
z"></path>
</svg>